<svg width="20" height="21" viewBox="0 0 20 21" fill="none" xmlns="http://www.w3.org/2000/svg">
<path d="M10 10.5C9.0375 10.5 8.25 9.7125 8.25 8.75C8.25 7.7875 9.0375 7 10 7C10.9625 7 11.75 7.7875 11.75 8.75C11.75 9.7125 10.9625 10.5 10 10.5ZM15.25 8.925C15.25 5.74875 12.9312 3.5 10 3.5C7.06875 3.5 4.75 5.74875 4.75 8.925C4.75 10.9725 6.45625 13.685 10 16.9225C13.5437 13.685 15.25 10.9725 15.25 8.925ZM10 1.75C13.675 1.75 17 4.5675 17 8.925C17 11.83 14.6637 15.2688 10 19.25C5.33625 15.2688 3 11.83 3 8.925C3 4.5675 6.325 1.75 10 1.75Z" fill="black"/>
</svg>
