<svg width="19" height="19" viewBox="0 0 19 19" fill="none" xmlns="http://www.w3.org/2000/svg">
<path d="M9.81679 0.842773C14.364 0.842773 18.0501 4.52882 18.0501 9.07607C18.0501 13.6233 14.364 17.3094 9.81679 17.3094C5.26954 17.3094 1.5835 13.6233 1.5835 9.07607C1.5835 4.52882 5.26954 0.842773 9.81679 0.842773ZM9.81679 2.48943C8.06991 2.48943 6.39457 3.18338 5.15934 4.41861C3.9241 5.65385 3.23015 7.32918 3.23015 9.07607C3.23015 10.823 3.9241 12.4983 5.15934 13.7335C6.39457 14.9688 8.06991 15.6627 9.81679 15.6627C11.5637 15.6627 13.239 14.9688 14.4742 13.7335C15.7095 12.4983 16.4034 10.823 16.4034 9.07607C16.4034 7.32918 15.7095 5.65385 14.4742 4.41861C13.239 3.18338 11.5637 2.48943 9.81679 2.48943ZM9.81679 4.13609C10.0185 4.13612 10.2131 4.21015 10.3638 4.34416C10.5145 4.47816 10.6108 4.66282 10.6344 4.86309L10.6401 4.95942V8.73521L12.8689 10.964C13.0165 11.1121 13.1023 11.3109 13.1086 11.52C13.115 11.7291 13.0416 11.9328 12.9032 12.0897C12.7649 12.2466 12.572 12.3449 12.3638 12.3648C12.1555 12.3846 11.9476 12.3244 11.7821 12.1965L11.7047 12.1281L9.2347 9.65816C9.10673 9.53009 9.02455 9.36341 9.00087 9.18392L8.99346 9.07607V4.95942C8.99346 4.74106 9.0802 4.53164 9.23461 4.37724C9.38901 4.22283 9.59843 4.13609 9.81679 4.13609Z" fill="black"/>
</svg>
