<svg width="332" height="129" viewBox="0 0 332 129" fill="none" xmlns="http://www.w3.org/2000/svg">
<rect width="332" height="129" rx="6" fill="#FFF8EE"/>
<mask id="mask0_199_191" style="mask-type:alpha" maskUnits="userSpaceOnUse" x="23" y="15" width="135" height="114">
<rect x="23" y="15" width="135" height="114" fill="#D9D9D9"/>
</mask>
<g mask="url(#mask0_199_191)">
<path d="M67.1401 115.473L75.8598 124.193L90 110.053L104.14 124.193L112.86 115.473L98.7196 101.333L112.86 87.1931L104.14 78.4734L90 92.6136L75.8598 78.4734L67.1401 87.1931L81.2803 101.333L67.1401 115.473Z" fill="white" fill-opacity="0.7"/>
<path d="M133.167 39.6666H120.833V27.3333H108.5V39.6666H71.5V27.3333H59.1667V39.6666H46.8333C40.0315 39.6666 34.5 45.1981 34.5 51.9999V138.333C34.5 145.135 40.0315 150.667 46.8333 150.667H133.167C139.968 150.667 145.5 145.135 145.5 138.333V51.9999C145.5 45.1981 139.968 39.6666 133.167 39.6666ZM133.179 138.333H46.8333V64.3333H133.167L133.179 138.333Z" fill="white" fill-opacity="0.7"/>
</g>
<rect x="0.5" y="0.5" width="331" height="128" rx="5.5" stroke="#FFA425"/>
</svg>
