<svg width="332" height="129" viewBox="0 0 332 129" fill="none" xmlns="http://www.w3.org/2000/svg">
<rect width="332" height="129" rx="6" fill="#FFF2F3"/>
<mask id="mask0_199_194" style="mask-type:alpha" maskUnits="userSpaceOnUse" x="20" y="22" width="141" height="107">
<rect x="20" y="22" width="141" height="107" fill="#D9D9D9"/>
</mask>
<g mask="url(#mask0_199_194)">
<path fill-rule="evenodd" clip-rule="evenodd" d="M85.6324 35.4117C83.3781 35.4117 81.2161 36.2997 79.622 37.8804C78.028 39.461 77.1324 41.6049 77.1324 43.8403C77.1324 46.0757 78.028 48.2195 79.622 49.8002C81.2161 51.3808 83.3781 52.2688 85.6324 52.2688H108.82C114.691 52.3822 120.282 54.7741 124.393 58.9308C128.504 63.0874 130.807 68.6772 130.807 74.4992C130.807 80.3212 128.504 85.9109 124.393 90.0676C120.282 94.2243 114.691 96.6162 108.82 96.7295H70.9444V82.165C70.9441 80.4982 70.4454 78.869 69.5114 77.4832C68.5773 76.0975 67.25 75.0175 65.697 74.3797C64.1441 73.7419 62.4353 73.575 60.7867 73.9C59.1381 74.2251 57.6237 75.0276 56.4349 76.206L33.2639 99.1823C32.0702 100.358 31.2553 101.859 30.9224 103.494C30.5895 105.13 30.7536 106.826 31.3939 108.369C31.8076 109.381 32.4253 110.3 33.2469 111.126L56.4349 134.119C57.6237 135.297 59.1381 136.1 60.7867 136.425C62.4353 136.75 64.1441 136.583 65.697 135.945C67.25 135.307 68.5773 134.227 69.5114 132.841C70.4454 131.456 70.9441 129.826 70.9444 128.16V113.587H108.82C114.046 113.663 119.234 112.708 124.084 110.778C128.934 108.848 133.348 105.981 137.07 102.343C140.792 98.7062 143.748 94.3716 145.766 89.5914C147.783 84.8113 148.822 79.6811 148.822 74.4992C148.822 69.3173 147.783 64.1871 145.766 59.407C143.748 54.6268 140.792 50.2921 137.07 46.655C133.348 43.0178 128.934 40.1508 124.084 38.2206C119.234 36.2904 114.046 35.3356 108.82 35.4117H85.6324Z" fill="white" fill-opacity="0.7"/>
</g>
<rect x="0.5" y="0.5" width="331" height="128" rx="5.5" stroke="#FA6F77"/>
</svg>
