<svg width="16" height="16" viewBox="0 0 16 16" fill="none" xmlns="http://www.w3.org/2000/svg">
<path d="M5.29303 1.63605C5.10556 1.82358 5.00024 2.07788 5.00024 2.34305C5.00024 2.60821 5.10556 2.86252 5.29303 3.05005L10.243 8.00005L5.29303 12.95C5.11087 13.1387 5.01008 13.3913 5.01236 13.6535C5.01463 13.9156 5.1198 14.1665 5.30521 14.3519C5.49062 14.5373 5.74143 14.6424 6.00363 14.6447C6.26583 14.647 6.51843 14.5462 6.70703 14.364L12.364 8.70705C12.5515 8.51952 12.6568 8.26521 12.6568 8.00005C12.6568 7.73488 12.5515 7.48058 12.364 7.29305L6.70703 1.63605C6.5195 1.44858 6.26519 1.34326 6.00003 1.34326C5.73487 1.34326 5.48056 1.44858 5.29303 1.63605Z" fill="black"/>
</svg>
